<?xml version="1.0" encoding="UTF-8" standalone="no"?>
<!DOCTYPE svg PUBLIC "-//W3C//DTD SVG 1.1//EN" "http://www.w3.org/Graphics/SVG/1.1/DTD/svg11.dtd">
<!-- Created with Vectornator (http://vectornator.io/) -->
<svg height="100%" stroke-miterlimit="10" style="fill-rule:nonzero;clip-rule:evenodd;stroke-linecap:round;stroke-linejoin:round;" version="1.1" viewBox="0 0 1024 1024" width="100%" xml:space="preserve" xmlns="http://www.w3.org/2000/svg" xmlns:xlink="http://www.w3.org/1999/xlink">
<defs/>
<path d="M0 0L1024 0L1024 1024L0 1024L0 0Z" fill="#ffffff" fill-rule="nonzero" opacity="1" stroke="none"/>
<g id="Background">
<path d="M0 0L1024 0L1024 1024L0 1024L0 0Z" fill="#11055c" fill-rule="nonzero" opacity="1" stroke="none"/>
</g>
<g id="Text">
<path d="M736.433 997L677.839 997L806.257 813.162L685.896 638.357L746.687 638.357L838.24 775.564L929.06 638.357L986.921 638.357L866.56 813.162L992.781 997L932.478 997L835.798 849.539L736.433 997Z" fill="#dddddd" opacity="1" stroke="none"/>
<g fill="#ffffff" opacity="1" stroke="none">
<path d="M25.6872 53.2714L43.4997 53.2714L69.8747 130.896L96.0622 53.2714L113.687 53.2714L113.687 145.084L101.875 145.084L101.875 90.8964C101.875 89.0214 101.916 85.9172 102 81.5839C102.083 77.2506 102.125 72.6047 102.125 67.6464L75.9372 145.084L63.6247 145.084L37.2497 67.6464L37.2497 70.4589C37.2497 72.7089 37.3017 76.136 37.4059 80.7402C37.5101 85.3443 37.5622 88.7297 37.5622 90.8964L37.5622 145.084L25.6872 145.084L25.6872 53.2714Z"/>
<path d="M131.437 78.1464L142.125 78.1464L142.125 89.7089C143 87.4589 145.145 84.7193 148.562 81.4902C151.979 78.261 155.916 76.6464 160.375 76.6464C160.583 76.6464 160.937 76.6672 161.437 76.7089C161.937 76.7506 162.791 76.8339 164 76.9589L164 88.8339C163.333 88.7089 162.718 88.6256 162.156 88.5839C161.593 88.5422 160.979 88.5214 160.312 88.5214C154.645 88.5214 150.291 90.3443 147.25 93.9902C144.208 97.636 142.687 101.834 142.687 106.584L142.687 145.084L131.437 145.084L131.437 78.1464Z"/>
<path d="M174.937 53.2714L192.75 53.2714L219.125 130.896L245.312 53.2714L262.937 53.2714L262.937 145.084L251.125 145.084L251.125 90.8964C251.125 89.0214 251.166 85.9172 251.25 81.5839C251.333 77.2506 251.375 72.6047 251.375 67.6464L225.187 145.084L212.875 145.084L186.5 67.6464L186.5 70.4589C186.5 72.7089 186.552 76.136 186.656 80.7402C186.76 85.3443 186.812 88.7297 186.812 90.8964L186.812 145.084L174.937 145.084L174.937 53.2714Z"/>
<path d="M289 127.271C289 130.521 290.187 133.084 292.562 134.959C294.937 136.834 297.75 137.771 301 137.771C304.958 137.771 308.791 136.855 312.5 135.021C318.75 131.98 321.875 127.001 321.875 120.084L321.875 111.021C320.5 111.896 318.729 112.626 316.562 113.209C314.395 113.792 312.27 114.209 310.187 114.459L303.375 115.334C299.291 115.876 296.229 116.73 294.187 117.896C290.729 119.855 289 122.98 289 127.271ZM316.25 104.521C318.833 104.188 320.562 103.105 321.437 101.271C321.937 100.271 322.187 98.8339 322.187 96.9589C322.187 93.1256 320.823 90.3443 318.093 88.6152C315.364 86.886 311.458 86.0214 306.375 86.0214C300.5 86.0214 296.333 87.6047 293.875 90.7714C292.5 92.5214 291.604 95.1256 291.187 98.5839L280.687 98.5839C280.895 90.3339 283.573 84.5943 288.718 81.3652C293.864 78.136 299.833 76.5214 306.625 76.5214C314.5 76.5214 320.895 78.0214 325.812 81.0214C330.687 84.0214 333.125 88.6881 333.125 95.0214L333.125 133.584C333.125 134.751 333.364 135.688 333.843 136.396C334.323 137.105 335.333 137.459 336.875 137.459C337.375 137.459 337.937 137.428 338.562 137.365C339.187 137.303 339.854 137.209 340.562 137.084L340.562 145.396C338.812 145.896 337.479 146.209 336.562 146.334C335.645 146.459 334.395 146.521 332.812 146.521C328.937 146.521 326.125 145.146 324.375 142.396C323.458 140.938 322.812 138.876 322.437 136.209C320.145 139.209 316.854 141.813 312.562 144.021C308.27 146.23 303.541 147.334 298.375 147.334C292.166 147.334 287.093 145.448 283.156 141.678C279.218 137.907 277.25 133.188 277.25 127.521C277.25 121.313 279.187 116.501 283.062 113.084C286.937 109.667 292.02 107.563 298.312 106.771L316.25 104.521Z"/>
<path d="M353.812 59.4589L365.187 59.4589L365.187 78.1464L375.875 78.1464L375.875 87.3339L365.187 87.3339L365.187 131.021C365.187 133.355 365.979 134.917 367.562 135.709C368.437 136.167 369.895 136.396 371.937 136.396C372.479 136.396 373.062 136.386 373.687 136.365C374.312 136.344 375.041 136.292 375.875 136.209L375.875 145.084C374.583 145.459 373.239 145.73 371.843 145.896C370.448 146.063 368.937 146.146 367.312 146.146C362.062 146.146 358.5 144.803 356.625 142.115C354.75 139.428 353.812 135.938 353.812 131.646L353.812 87.3339L344.75 87.3339L344.75 78.1464L353.812 78.1464L353.812 59.4589Z"/>
<path d="M428.625 79.0214L441.687 79.0214L441.687 92.6464L428.625 92.6464L428.625 79.0214ZM428.625 131.459L441.687 131.459L441.687 145.084L428.625 145.084L428.625 131.459Z"/>
<path d="M464.187 79.0214L477.25 79.0214L477.25 92.6464L464.187 92.6464L464.187 79.0214ZM464.187 131.459L477.25 131.459L477.25 145.084L464.187 145.084L464.187 131.459Z"/>
<path d="M538.75 145.084L523.75 145.084L556.625 98.0214L525.812 53.2714L541.375 53.2714L564.812 88.3964L588.062 53.2714L602.875 53.2714L572.062 98.0214L604.375 145.084L588.937 145.084L564.187 107.334L538.75 145.084Z"/>
<path d="M615.937 53.2714L633.75 53.2714L660.125 130.896L686.312 53.2714L703.937 53.2714L703.937 145.084L692.125 145.084L692.125 90.8964C692.125 89.0214 692.166 85.9172 692.25 81.5839C692.333 77.2506 692.375 72.6047 692.375 67.6464L666.187 145.084L653.875 145.084L627.5 67.6464L627.5 70.4589C627.5 72.7089 627.552 76.136 627.656 80.7402C627.76 85.3443 627.812 88.7297 627.812 90.8964L627.812 145.084L615.937 145.084L615.937 53.2714Z"/>
<path d="M730 127.271C730 130.521 731.187 133.084 733.562 134.959C735.937 136.834 738.75 137.771 742 137.771C745.958 137.771 749.791 136.855 753.5 135.021C759.75 131.98 762.875 127.001 762.875 120.084L762.875 111.021C761.5 111.896 759.729 112.626 757.562 113.209C755.395 113.792 753.27 114.209 751.187 114.459L744.375 115.334C740.291 115.876 737.229 116.73 735.187 117.896C731.729 119.855 730 122.98 730 127.271ZM757.25 104.521C759.833 104.188 761.562 103.105 762.437 101.271C762.937 100.271 763.187 98.8339 763.187 96.9589C763.187 93.1256 761.823 90.3443 759.093 88.6152C756.364 86.886 752.458 86.0214 747.375 86.0214C741.5 86.0214 737.333 87.6047 734.875 90.7714C733.5 92.5214 732.604 95.1256 732.187 98.5839L721.687 98.5839C721.895 90.3339 724.573 84.5943 729.718 81.3652C734.864 78.136 740.833 76.5214 747.625 76.5214C755.5 76.5214 761.895 78.0214 766.812 81.0214C771.687 84.0214 774.125 88.6881 774.125 95.0214L774.125 133.584C774.125 134.751 774.364 135.688 774.843 136.396C775.323 137.105 776.333 137.459 777.875 137.459C778.375 137.459 778.937 137.428 779.562 137.365C780.187 137.303 780.854 137.209 781.562 137.084L781.562 145.396C779.812 145.896 778.479 146.209 777.562 146.334C776.645 146.459 775.395 146.521 773.812 146.521C769.937 146.521 767.125 145.146 765.375 142.396C764.458 140.938 763.812 138.876 763.437 136.209C761.145 139.209 757.854 141.813 753.562 144.021C749.27 146.23 744.541 147.334 739.375 147.334C733.166 147.334 728.093 145.448 724.156 141.678C720.218 137.907 718.25 133.188 718.25 127.521C718.25 121.313 720.187 116.501 724.062 113.084C727.937 109.667 733.02 107.563 739.312 106.771L757.25 104.521Z"/>
<path d="M799.25 124.084C799.583 127.834 800.52 130.709 802.062 132.709C804.895 136.334 809.812 138.146 816.812 138.146C820.979 138.146 824.645 137.24 827.812 135.428C830.979 133.615 832.562 130.813 832.562 127.021C832.562 124.146 831.291 121.959 828.75 120.459C827.125 119.542 823.916 118.48 819.125 117.271L810.187 115.021C804.479 113.605 800.27 112.021 797.562 110.271C792.729 107.23 790.312 103.021 790.312 97.6464C790.312 91.3131 792.593 86.1881 797.156 82.2714C801.718 78.3547 807.854 76.3964 815.562 76.3964C825.645 76.3964 832.916 79.3547 837.375 85.2714C840.166 89.0214 841.52 93.0631 841.437 97.3964L830.812 97.3964C830.604 94.8547 829.708 92.5422 828.125 90.4589C825.541 87.5006 821.062 86.0214 814.687 86.0214C810.437 86.0214 807.218 86.8339 805.031 88.4589C802.843 90.0839 801.75 92.2297 801.75 94.8964C801.75 97.8131 803.187 100.146 806.062 101.896C807.729 102.938 810.187 103.855 813.437 104.646L820.875 106.459C828.958 108.417 834.375 110.313 837.125 112.146C841.5 115.021 843.687 119.542 843.687 125.709C843.687 131.667 841.427 136.813 836.906 141.146C832.385 145.48 825.5 147.646 816.25 147.646C806.291 147.646 799.239 145.386 795.093 140.865C790.948 136.344 788.729 130.751 788.437 124.084L799.25 124.084Z"/>
</g>
</g>
</svg>
